<svg width="123" height="40" viewBox="0 0 123 40" fill="none" xmlns="http://www.w3.org/2000/svg">
<path d="M21.3125 27.35C20.0875 28.5375 18.75 28.35 17.4625 27.7875C16.1 27.2125 14.85 27.1875 13.4125 27.7875C11.6125 28.5625 10.6625 28.3375 9.58746 27.35C3.48746 21.0625 4.38746 11.4875 11.3125 11.1375C13 11.225 14.175 12.0625 15.1625 12.1375C16.6375 11.8375 18.05 10.975 19.625 11.0875C21.5125 11.2375 22.9375 11.9875 23.875 13.3375C19.975 15.675 20.9 20.8125 24.475 22.25C23.7625 24.125 22.8375 25.9875 21.3 27.3625L21.3125 27.35V27.35ZM15.0375 11.0625C14.85 8.275 17.1125 5.975 19.7125 5.75C20.075 8.975 16.7875 11.375 15.0375 11.0625Z" fill="white"/>
<path d="M34.925 7.682C35.591 7.682 36.173 7.814 36.671 8.078C37.169 8.342 37.553 8.714 37.823 9.194C38.099 9.668 38.237 10.217 38.237 10.841C38.237 11.459 38.099 12.008 37.823 12.488C37.553 12.968 37.166 13.34 36.662 13.604C36.164 13.868 35.585 14 34.925 14H32.558V7.682H34.925ZM34.826 12.668C35.408 12.668 35.861 12.509 36.185 12.191C36.509 11.873 36.671 11.423 36.671 10.841C36.671 10.259 36.509 9.806 36.185 9.482C35.861 9.158 35.408 8.996 34.826 8.996H34.097V12.668H34.826ZM41.3831 14.072C40.8911 14.072 40.4471 13.967 40.0511 13.757C39.6611 13.547 39.3521 13.247 39.1241 12.857C38.9021 12.467 38.7911 12.011 38.7911 11.489C38.7911 10.973 38.9051 10.52 39.1331 10.13C39.3611 9.734 39.6731 9.431 40.0691 9.221C40.4651 9.011 40.9091 8.906 41.4011 8.906C41.8931 8.906 42.3371 9.011 42.7331 9.221C43.1291 9.431 43.4411 9.734 43.6691 10.13C43.8971 10.52 44.0111 10.973 44.0111 11.489C44.0111 12.005 43.8941 12.461 43.6601 12.857C43.4321 13.247 43.1171 13.547 42.7151 13.757C42.3191 13.967 41.8751 14.072 41.3831 14.072ZM41.3831 12.74C41.6771 12.74 41.9261 12.632 42.1301 12.416C42.3401 12.2 42.4451 11.891 42.4451 11.489C42.4451 11.087 42.3431 10.778 42.1391 10.562C41.9411 10.346 41.6951 10.238 41.4011 10.238C41.1011 10.238 40.8521 10.346 40.6541 10.562C40.4561 10.772 40.3571 11.081 40.3571 11.489C40.3571 11.891 40.4531 12.2 40.6451 12.416C40.8431 12.632 41.0891 12.74 41.3831 12.74ZM52.0365 8.978L50.6775 14H48.9765L48.1845 10.742L47.3655 14H45.6735L44.3055 8.978H45.8445L46.5555 12.569L47.4015 8.978H49.0305L49.8855 12.551L50.5875 8.978H52.0365ZM55.6834 8.924C56.2714 8.924 56.7394 9.116 57.0874 9.5C57.4414 9.878 57.6184 10.4 57.6184 11.066V14H56.0884V11.273C56.0884 10.937 56.0014 10.676 55.8274 10.49C55.6534 10.304 55.4194 10.211 55.1254 10.211C54.8314 10.211 54.5974 10.304 54.4234 10.49C54.2494 10.676 54.1624 10.937 54.1624 11.273V14H52.6234V8.978H54.1624V9.644C54.3184 9.422 54.5284 9.248 54.7924 9.122C55.0564 8.99 55.3534 8.924 55.6834 8.924ZM60.2269 7.34V14H58.6879V7.34H60.2269ZM63.6282 14.072C63.1362 14.072 62.6922 13.967 62.2962 13.757C61.9062 13.547 61.5972 13.247 61.3692 12.857C61.1472 12.467 61.0362 12.011 61.0362 11.489C61.0362 10.973 61.1502 10.52 61.3782 10.13C61.6062 9.734 61.9182 9.431 62.3142 9.221C62.7102 9.011 63.1542 8.906 63.6462 8.906C64.1382 8.906 64.5822 9.011 64.9782 9.221C65.3742 9.431 65.6862 9.734 65.9142 10.13C66.1422 10.52 66.2562 10.973 66.2562 11.489C66.2562 12.005 66.1392 12.461 65.9052 12.857C65.6772 13.247 65.3622 13.547 64.9602 13.757C64.5642 13.967 64.1202 14.072 63.6282 14.072ZM63.6282 12.74C63.9222 12.74 64.1712 12.632 64.3752 12.416C64.5852 12.2 64.6902 11.891 64.6902 11.489C64.6902 11.087 64.5882 10.778 64.3842 10.562C64.1862 10.346 63.9402 10.238 63.6462 10.238C63.3462 10.238 63.0972 10.346 62.8992 10.562C62.7012 10.772 62.6022 11.081 62.6022 11.489C62.6022 11.891 62.6982 12.2 62.8902 12.416C63.0882 12.632 63.3342 12.74 63.6282 12.74ZM66.7666 11.48C66.7666 10.964 66.8626 10.511 67.0546 10.121C67.2526 9.731 67.5196 9.431 67.8556 9.221C68.1916 9.011 68.5666 8.906 68.9806 8.906C69.3346 8.906 69.6436 8.978 69.9076 9.122C70.1776 9.266 70.3846 9.455 70.5286 9.689V8.978H72.0676V14H70.5286V13.289C70.3786 13.523 70.1686 13.712 69.8986 13.856C69.6346 14 69.3256 14.072 68.9716 14.072C68.5636 14.072 68.1916 13.967 67.8556 13.757C67.5196 13.541 67.2526 13.238 67.0546 12.848C66.8626 12.452 66.7666 11.996 66.7666 11.48ZM70.5286 11.489C70.5286 11.105 70.4206 10.802 70.2046 10.58C69.9946 10.358 69.7366 10.247 69.4306 10.247C69.1246 10.247 68.8636 10.358 68.6476 10.58C68.4376 10.796 68.3326 11.096 68.3326 11.48C68.3326 11.864 68.4376 12.17 68.6476 12.398C68.8636 12.62 69.1246 12.731 69.4306 12.731C69.7366 12.731 69.9946 12.62 70.2046 12.398C70.4206 12.176 70.5286 11.873 70.5286 11.489ZM72.875 11.48C72.875 10.964 72.971 10.511 73.163 10.121C73.361 9.731 73.628 9.431 73.964 9.221C74.3 9.011 74.675 8.906 75.089 8.906C75.419 8.906 75.719 8.975 75.989 9.113C76.265 9.251 76.481 9.437 76.637 9.671V7.34H78.176V14H76.637V13.28C76.493 13.52 76.286 13.712 76.016 13.856C75.752 14 75.443 14.072 75.089 14.072C74.675 14.072 74.3 13.967 73.964 13.757C73.628 13.541 73.361 13.238 73.163 12.848C72.971 12.452 72.875 11.996 72.875 11.48ZM76.637 11.489C76.637 11.105 76.529 10.802 76.313 10.58C76.103 10.358 75.845 10.247 75.539 10.247C75.233 10.247 74.972 10.358 74.756 10.58C74.546 10.796 74.441 11.096 74.441 11.48C74.441 11.864 74.546 12.17 74.756 12.398C74.972 12.62 75.233 12.731 75.539 12.731C75.845 12.731 76.103 12.62 76.313 12.398C76.529 12.176 76.637 11.873 76.637 11.489ZM84.1847 14.063C83.5907 14.063 83.0447 13.925 82.5467 13.649C82.0547 13.373 81.6617 12.989 81.3677 12.497C81.0797 11.999 80.9357 11.441 80.9357 10.823C80.9357 10.205 81.0797 9.65 81.3677 9.158C81.6617 8.666 82.0547 8.282 82.5467 8.006C83.0447 7.73 83.5907 7.592 84.1847 7.592C84.7787 7.592 85.3217 7.73 85.8137 8.006C86.3117 8.282 86.7017 8.666 86.9837 9.158C87.2717 9.65 87.4157 10.205 87.4157 10.823C87.4157 11.441 87.2717 11.999 86.9837 12.497C86.6957 12.989 86.3057 13.373 85.8137 13.649C85.3217 13.925 84.7787 14.063 84.1847 14.063ZM84.1847 12.659C84.6887 12.659 85.0907 12.491 85.3907 12.155C85.6967 11.819 85.8497 11.375 85.8497 10.823C85.8497 10.265 85.6967 9.821 85.3907 9.491C85.0907 9.155 84.6887 8.987 84.1847 8.987C83.6747 8.987 83.2667 9.152 82.9607 9.482C82.6607 9.812 82.5107 10.259 82.5107 10.823C82.5107 11.381 82.6607 11.828 82.9607 12.164C83.2667 12.494 83.6747 12.659 84.1847 12.659ZM91.3319 8.924C91.9199 8.924 92.3879 9.116 92.7359 9.5C93.0899 9.878 93.2669 10.4 93.2669 11.066V14H91.7369V11.273C91.7369 10.937 91.6499 10.676 91.4759 10.49C91.3019 10.304 91.0679 10.211 90.7739 10.211C90.4799 10.211 90.2459 10.304 90.0719 10.49C89.8979 10.676 89.8109 10.937 89.8109 11.273V14H88.2719V8.978H89.8109V9.644C89.9669 9.422 90.1769 9.248 90.4409 9.122C90.7049 8.99 91.0019 8.924 91.3319 8.924ZM100.789 7.682V8.915H99.1145V14H97.5755V8.915H95.9015V7.682H100.789ZM104.648 8.924C105.224 8.924 105.686 9.116 106.034 9.5C106.382 9.878 106.556 10.4 106.556 11.066V14H105.026V11.273C105.026 10.937 104.939 10.676 104.765 10.49C104.591 10.304 104.357 10.211 104.063 10.211C103.769 10.211 103.535 10.304 103.361 10.49C103.187 10.676 103.1 10.937 103.1 11.273V14H101.561V7.34H103.1V9.653C103.256 9.431 103.469 9.254 103.739 9.122C104.009 8.99 104.312 8.924 104.648 8.924ZM112.359 11.408C112.359 11.552 112.35 11.702 112.332 11.858H108.849C108.873 12.17 108.972 12.41 109.146 12.578C109.326 12.74 109.545 12.821 109.803 12.821C110.187 12.821 110.454 12.659 110.604 12.335H112.242C112.158 12.665 112.005 12.962 111.783 13.226C111.567 13.49 111.294 13.697 110.964 13.847C110.634 13.997 110.265 14.072 109.857 14.072C109.365 14.072 108.927 13.967 108.543 13.757C108.159 13.547 107.859 13.247 107.643 12.857C107.427 12.467 107.319 12.011 107.319 11.489C107.319 10.967 107.424 10.511 107.634 10.121C107.85 9.731 108.15 9.431 108.534 9.221C108.918 9.011 109.359 8.906 109.857 8.906C110.343 8.906 110.775 9.008 111.153 9.212C111.531 9.416 111.825 9.707 112.035 10.085C112.251 10.463 112.359 10.904 112.359 11.408ZM110.784 11.003C110.784 10.739 110.694 10.529 110.514 10.373C110.334 10.217 110.109 10.139 109.839 10.139C109.581 10.139 109.362 10.214 109.182 10.364C109.008 10.514 108.9 10.727 108.858 11.003H110.784Z" fill="white"/>
<path d="M39.489 27.636H36.607L36.145 29H34.176L36.97 21.278H39.148L41.942 29H39.951L39.489 27.636ZM39.005 26.184L38.048 23.357L37.102 26.184H39.005ZM44.6734 23.731C44.8567 23.445 45.1097 23.214 45.4324 23.038C45.755 22.862 46.1327 22.774 46.5654 22.774C47.0714 22.774 47.5297 22.9023 47.9404 23.159C48.351 23.4157 48.6737 23.7823 48.9084 24.259C49.1504 24.7357 49.2714 25.2893 49.2714 25.92C49.2714 26.5507 49.1504 27.108 48.9084 27.592C48.6737 28.0687 48.351 28.439 47.9404 28.703C47.5297 28.9597 47.0714 29.088 46.5654 29.088C46.14 29.088 45.7624 29 45.4324 28.824C45.1097 28.648 44.8567 28.4207 44.6734 28.142V31.926H42.7924V22.862H44.6734V23.731ZM47.3574 25.92C47.3574 25.4507 47.2254 25.084 46.9614 24.82C46.7047 24.5487 46.3857 24.413 46.0044 24.413C45.6304 24.413 45.3114 24.5487 45.0474 24.82C44.7907 25.0913 44.6624 25.4617 44.6624 25.931C44.6624 26.4003 44.7907 26.7707 45.0474 27.042C45.3114 27.3133 45.6304 27.449 46.0044 27.449C46.3784 27.449 46.6974 27.3133 46.9614 27.042C47.2254 26.7633 47.3574 26.3893 47.3574 25.92ZM52.1392 23.731C52.3225 23.445 52.5755 23.214 52.8982 23.038C53.2208 22.862 53.5985 22.774 54.0312 22.774C54.5372 22.774 54.9955 22.9023 55.4062 23.159C55.8168 23.4157 56.1395 23.7823 56.3742 24.259C56.6162 24.7357 56.7372 25.2893 56.7372 25.92C56.7372 26.5507 56.6162 27.108 56.3742 27.592C56.1395 28.0687 55.8168 28.439 55.4062 28.703C54.9955 28.9597 54.5372 29.088 54.0312 29.088C53.6058 29.088 53.2282 29 52.8982 28.824C52.5755 28.648 52.3225 28.4207 52.1392 28.142V31.926H50.2582V22.862H52.1392V23.731ZM54.8232 25.92C54.8232 25.4507 54.6912 25.084 54.4272 24.82C54.1705 24.5487 53.8515 24.413 53.4702 24.413C53.0962 24.413 52.7772 24.5487 52.5132 24.82C52.2565 25.0913 52.1282 25.4617 52.1282 25.931C52.1282 26.4003 52.2565 26.7707 52.5132 27.042C52.7772 27.3133 53.0962 27.449 53.4702 27.449C53.8442 27.449 54.1632 27.3133 54.4272 27.042C54.6912 26.7633 54.8232 26.3893 54.8232 25.92ZM59.605 20.86V29H57.724V20.86H59.605ZM66.7541 25.832C66.7541 26.008 66.7431 26.1913 66.7211 26.382H62.4641C62.4935 26.7633 62.6145 27.0567 62.8271 27.262C63.0471 27.46 63.3148 27.559 63.6301 27.559C64.0995 27.559 64.4258 27.361 64.6091 26.965H66.6111C66.5085 27.3683 66.3215 27.7313 66.0501 28.054C65.7861 28.3767 65.4525 28.6297 65.0491 28.813C64.6458 28.9963 64.1948 29.088 63.6961 29.088C63.0948 29.088 62.5595 28.9597 62.0901 28.703C61.6208 28.4463 61.2541 28.0797 60.9901 27.603C60.7261 27.1263 60.5941 26.569 60.5941 25.931C60.5941 25.293 60.7225 24.7357 60.9791 24.259C61.2431 23.7823 61.6098 23.4157 62.0791 23.159C62.5485 22.9023 63.0875 22.774 63.6961 22.774C64.2901 22.774 64.8181 22.8987 65.2801 23.148C65.7421 23.3973 66.1015 23.753 66.3581 24.215C66.6221 24.677 66.7541 25.216 66.7541 25.832ZM64.8291 25.337C64.8291 25.0143 64.7191 24.7577 64.4991 24.567C64.2791 24.3763 64.0041 24.281 63.6741 24.281C63.3588 24.281 63.0911 24.3727 62.8711 24.556C62.6585 24.7393 62.5265 24.9997 62.4751 25.337H64.8291ZM72.8715 29.077C72.3068 29.077 71.8008 28.9853 71.3535 28.802C70.9062 28.6187 70.5468 28.3473 70.2755 27.988C70.0115 27.6287 69.8722 27.196 69.8575 26.69H71.8595C71.8888 26.976 71.9878 27.196 72.1565 27.35C72.3252 27.4967 72.5452 27.57 72.8165 27.57C73.0952 27.57 73.3152 27.5077 73.4765 27.383C73.6378 27.251 73.7185 27.0713 73.7185 26.844C73.7185 26.6533 73.6525 26.4957 73.5205 26.371C73.3958 26.2463 73.2382 26.1437 73.0475 26.063C72.8642 25.9823 72.6002 25.8907 72.2555 25.788C71.7568 25.634 71.3498 25.48 71.0345 25.326C70.7192 25.172 70.4478 24.9447 70.2205 24.644C69.9932 24.3433 69.8795 23.951 69.8795 23.467C69.8795 22.7483 70.1398 22.1873 70.6605 21.784C71.1812 21.3733 71.8595 21.168 72.6955 21.168C73.5462 21.168 74.2318 21.3733 74.7525 21.784C75.2732 22.1873 75.5518 22.752 75.5885 23.478H73.5535C73.5388 23.2287 73.4472 23.0343 73.2785 22.895C73.1098 22.7483 72.8935 22.675 72.6295 22.675C72.4022 22.675 72.2188 22.7373 72.0795 22.862C71.9402 22.9793 71.8705 23.1517 71.8705 23.379C71.8705 23.6283 71.9878 23.8227 72.2225 23.962C72.4572 24.1013 72.8238 24.2517 73.3225 24.413C73.8212 24.5817 74.2245 24.743 74.5325 24.897C74.8478 25.051 75.1192 25.2747 75.3465 25.568C75.5738 25.8613 75.6875 26.239 75.6875 26.701C75.6875 27.141 75.5738 27.5407 75.3465 27.9C75.1265 28.2593 74.8038 28.5453 74.3785 28.758C73.9532 28.9707 73.4508 29.077 72.8715 29.077ZM80.2661 27.405V29H79.3091C78.6271 29 78.0954 28.835 77.7141 28.505C77.3328 28.1677 77.1421 27.6213 77.1421 26.866V24.424H76.3941V22.862H77.1421V21.366H79.0231V22.862H80.2551V24.424H79.0231V26.888C79.0231 27.0713 79.0671 27.2033 79.1551 27.284C79.2431 27.3647 79.3898 27.405 79.5951 27.405H80.2661ZM84.1078 29.088C83.5065 29.088 82.9638 28.9597 82.4798 28.703C82.0032 28.4463 81.6255 28.0797 81.3468 27.603C81.0755 27.1263 80.9398 26.569 80.9398 25.931C80.9398 25.3003 81.0792 24.7467 81.3578 24.27C81.6365 23.786 82.0178 23.4157 82.5018 23.159C82.9858 22.9023 83.5285 22.774 84.1298 22.774C84.7312 22.774 85.2738 22.9023 85.7578 23.159C86.2418 23.4157 86.6232 23.786 86.9018 24.27C87.1805 24.7467 87.3198 25.3003 87.3198 25.931C87.3198 26.5617 87.1768 27.119 86.8908 27.603C86.6122 28.0797 86.2272 28.4463 85.7358 28.703C85.2518 28.9597 84.7092 29.088 84.1078 29.088ZM84.1078 27.46C84.4672 27.46 84.7715 27.328 85.0208 27.064C85.2775 26.8 85.4058 26.4223 85.4058 25.931C85.4058 25.4397 85.2812 25.062 85.0318 24.798C84.7898 24.534 84.4892 24.402 84.1298 24.402C83.7632 24.402 83.4588 24.534 83.2168 24.798C82.9748 25.0547 82.8538 25.4323 82.8538 25.931C82.8538 26.4223 82.9712 26.8 83.2058 27.064C83.4478 27.328 83.7485 27.46 84.1078 27.46ZM90.1987 23.885C90.4187 23.5477 90.6937 23.2837 91.0237 23.093C91.3537 22.895 91.7204 22.796 92.1237 22.796V24.787H91.6067C91.1374 24.787 90.7854 24.8897 90.5507 25.095C90.3161 25.293 90.1987 25.645 90.1987 26.151V29H88.3177V22.862H90.1987V23.885ZM98.8088 25.832C98.8088 26.008 98.7978 26.1913 98.7758 26.382H94.5188C94.5482 26.7633 94.6692 27.0567 94.8818 27.262C95.1018 27.46 95.3695 27.559 95.6848 27.559C96.1542 27.559 96.4805 27.361 96.6638 26.965H98.6658C98.5632 27.3683 98.3762 27.7313 98.1048 28.054C97.8408 28.3767 97.5072 28.6297 97.1038 28.813C96.7005 28.9963 96.2495 29.088 95.7508 29.088C95.1495 29.088 94.6142 28.9597 94.1448 28.703C93.6755 28.4463 93.3088 28.0797 93.0448 27.603C92.7808 27.1263 92.6488 26.569 92.6488 25.931C92.6488 25.293 92.7772 24.7357 93.0338 24.259C93.2978 23.7823 93.6645 23.4157 94.1338 23.159C94.6032 22.9023 95.1422 22.774 95.7508 22.774C96.3448 22.774 96.8728 22.8987 97.3348 23.148C97.7968 23.3973 98.1562 23.753 98.4128 24.215C98.6768 24.677 98.8088 25.216 98.8088 25.832ZM96.8838 25.337C96.8838 25.0143 96.7738 24.7577 96.5538 24.567C96.3338 24.3763 96.0588 24.281 95.7288 24.281C95.4135 24.281 95.1458 24.3727 94.9258 24.556C94.7132 24.7393 94.5812 24.9997 94.5298 25.337H96.8838Z" fill="white"/>
<rect x="1" y="1" width="121" height="38" stroke="white" stroke-width="2"/>
</svg>
