<svg width="123" height="40" viewBox="0 0 123 40" fill="none" xmlns="http://www.w3.org/2000/svg">
<path d="M58.752 10.68C58.638 10.47 58.473 10.311 58.257 10.203C58.047 10.089 57.798 10.032 57.51 10.032C57.012 10.032 56.613 10.197 56.313 10.527C56.013 10.851 55.863 11.286 55.863 11.832C55.863 12.414 56.019 12.87 56.331 13.2C56.649 13.524 57.084 13.686 57.636 13.686C58.014 13.686 58.332 13.59 58.59 13.398C58.854 13.206 59.046 12.93 59.166 12.57H57.213V11.436H60.561V12.867C60.447 13.251 60.252 13.608 59.976 13.938C59.706 14.268 59.361 14.535 58.941 14.739C58.521 14.943 58.047 15.045 57.519 15.045C56.895 15.045 56.337 14.91 55.845 14.64C55.359 14.364 54.978 13.983 54.702 13.497C54.432 13.011 54.297 12.456 54.297 11.832C54.297 11.208 54.432 10.653 54.702 10.167C54.978 9.675 55.359 9.294 55.845 9.024C56.331 8.748 56.886 8.61 57.51 8.61C58.266 8.61 58.902 8.793 59.418 9.159C59.94 9.525 60.285 10.032 60.453 10.68H58.752ZM66.1475 12.408C66.1475 12.552 66.1385 12.702 66.1205 12.858H62.6375C62.6615 13.17 62.7605 13.41 62.9345 13.578C63.1145 13.74 63.3335 13.821 63.5915 13.821C63.9755 13.821 64.2425 13.659 64.3925 13.335H66.0305C65.9465 13.665 65.7935 13.962 65.5715 14.226C65.3555 14.49 65.0825 14.697 64.7525 14.847C64.4225 14.997 64.0535 15.072 63.6455 15.072C63.1535 15.072 62.7155 14.967 62.3315 14.757C61.9475 14.547 61.6475 14.247 61.4315 13.857C61.2155 13.467 61.1075 13.011 61.1075 12.489C61.1075 11.967 61.2125 11.511 61.4225 11.121C61.6385 10.731 61.9385 10.431 62.3225 10.221C62.7065 10.011 63.1475 9.906 63.6455 9.906C64.1315 9.906 64.5635 10.008 64.9415 10.212C65.3195 10.416 65.6135 10.707 65.8235 11.085C66.0395 11.463 66.1475 11.904 66.1475 12.408ZM64.5725 12.003C64.5725 11.739 64.4825 11.529 64.3025 11.373C64.1225 11.217 63.8975 11.139 63.6275 11.139C63.3695 11.139 63.1505 11.214 62.9705 11.364C62.7965 11.514 62.6885 11.727 62.6465 12.003H64.5725ZM69.7584 13.695V15H68.9754C68.4174 15 67.9824 14.865 67.6704 14.595C67.3584 14.319 67.2024 13.872 67.2024 13.254V11.256H66.5904V9.978H67.2024V8.754H68.7414V9.978H69.7494V11.256H68.7414V13.272C68.7414 13.422 68.7774 13.53 68.8494 13.596C68.9214 13.662 69.0414 13.695 69.2094 13.695H69.7584ZM74.0618 8.682V15H72.5228V8.682H74.0618ZM79.7221 8.682V9.915H78.0481V15H76.5091V9.915H74.8351V8.682H79.7221ZM85.3898 15.063C84.7958 15.063 84.2498 14.925 83.7518 14.649C83.2598 14.373 82.8668 13.989 82.5728 13.497C82.2847 12.999 82.1407 12.441 82.1407 11.823C82.1407 11.205 82.2847 10.65 82.5728 10.158C82.8668 9.666 83.2598 9.282 83.7518 9.006C84.2498 8.73 84.7958 8.592 85.3898 8.592C85.9838 8.592 86.5268 8.73 87.0188 9.006C87.5168 9.282 87.9068 9.666 88.1888 10.158C88.4768 10.65 88.6208 11.205 88.6208 11.823C88.6208 12.441 88.4768 12.999 88.1888 13.497C87.9008 13.989 87.5108 14.373 87.0188 14.649C86.5268 14.925 85.9838 15.063 85.3898 15.063ZM85.3898 13.659C85.8938 13.659 86.2958 13.491 86.5957 13.155C86.9018 12.819 87.0548 12.375 87.0548 11.823C87.0548 11.265 86.9018 10.821 86.5957 10.491C86.2958 10.155 85.8938 9.987 85.3898 9.987C84.8798 9.987 84.4718 10.152 84.1658 10.482C83.8658 10.812 83.7158 11.259 83.7158 11.823C83.7158 12.381 83.8658 12.828 84.1658 13.164C84.4718 13.494 84.8798 13.659 85.3898 13.659ZM95.1289 15H93.5899L91.0159 11.103V15H89.4769V8.682H91.0159L93.5899 12.597V8.682H95.1289V15Z" fill="white"/>
<path d="M51.808 23.72C51.6687 23.4633 51.467 23.269 51.203 23.137C50.9463 22.9977 50.642 22.928 50.29 22.928C49.6813 22.928 49.1937 23.1297 48.827 23.533C48.4603 23.929 48.277 24.4607 48.277 25.128C48.277 25.8393 48.4677 26.3967 48.849 26.8C49.2377 27.196 49.7693 27.394 50.444 27.394C50.906 27.394 51.2947 27.2767 51.61 27.042C51.9327 26.8073 52.1673 26.47 52.314 26.03H49.927V24.644H54.019V26.393C53.8797 26.8623 53.6413 27.2987 53.304 27.702C52.974 28.1053 52.5523 28.4317 52.039 28.681C51.5257 28.9303 50.9463 29.055 50.301 29.055C49.5383 29.055 48.8563 28.89 48.255 28.56C47.661 28.2227 47.1953 27.757 46.858 27.163C46.528 26.569 46.363 25.8907 46.363 25.128C46.363 24.3653 46.528 23.687 46.858 23.093C47.1953 22.4917 47.661 22.026 48.255 21.696C48.849 21.3587 49.5273 21.19 50.29 21.19C51.214 21.19 51.9913 21.4137 52.622 21.861C53.26 22.3083 53.6817 22.928 53.887 23.72H51.808ZM57.8549 29.088C57.2536 29.088 56.7109 28.9597 56.2269 28.703C55.7502 28.4463 55.3726 28.0797 55.0939 27.603C54.8226 27.1263 54.6869 26.569 54.6869 25.931C54.6869 25.3003 54.8262 24.7467 55.1049 24.27C55.3836 23.786 55.7649 23.4157 56.2489 23.159C56.7329 22.9023 57.2756 22.774 57.8769 22.774C58.4782 22.774 59.0209 22.9023 59.5049 23.159C59.9889 23.4157 60.3702 23.786 60.6489 24.27C60.9276 24.7467 61.0669 25.3003 61.0669 25.931C61.0669 26.5617 60.9239 27.119 60.6379 27.603C60.3592 28.0797 59.9742 28.4463 59.4829 28.703C58.9989 28.9597 58.4562 29.088 57.8549 29.088ZM57.8549 27.46C58.2142 27.46 58.5186 27.328 58.7679 27.064C59.0246 26.8 59.1529 26.4223 59.1529 25.931C59.1529 25.4397 59.0282 25.062 58.7789 24.798C58.5369 24.534 58.2362 24.402 57.8769 24.402C57.5102 24.402 57.2059 24.534 56.9639 24.798C56.7219 25.0547 56.6009 25.4323 56.6009 25.931C56.6009 26.4223 56.7182 26.8 56.9529 27.064C57.1949 27.328 57.4956 27.46 57.8549 27.46ZM64.8588 29.088C64.2575 29.088 63.7148 28.9597 63.2308 28.703C62.7541 28.4463 62.3765 28.0797 62.0978 27.603C61.8265 27.1263 61.6908 26.569 61.6908 25.931C61.6908 25.3003 61.8301 24.7467 62.1088 24.27C62.3875 23.786 62.7688 23.4157 63.2528 23.159C63.7368 22.9023 64.2795 22.774 64.8808 22.774C65.4821 22.774 66.0248 22.9023 66.5088 23.159C66.9928 23.4157 67.3741 23.786 67.6528 24.27C67.9315 24.7467 68.0708 25.3003 68.0708 25.931C68.0708 26.5617 67.9278 27.119 67.6418 27.603C67.3631 28.0797 66.9781 28.4463 66.4868 28.703C66.0028 28.9597 65.4601 29.088 64.8588 29.088ZM64.8588 27.46C65.2181 27.46 65.5225 27.328 65.7718 27.064C66.0285 26.8 66.1568 26.4223 66.1568 25.931C66.1568 25.4397 66.0321 25.062 65.7828 24.798C65.5408 24.534 65.2401 24.402 64.8808 24.402C64.5141 24.402 64.2098 24.534 63.9678 24.798C63.7258 25.0547 63.6048 25.4323 63.6048 25.931C63.6048 26.4223 63.7221 26.8 63.9568 27.064C64.1988 27.328 64.4995 27.46 64.8588 27.46ZM71.4007 22.774C71.8334 22.774 72.2111 22.862 72.5337 23.038C72.8637 23.214 73.1167 23.445 73.2927 23.731V22.862H75.1737V28.989C75.1737 29.5537 75.0601 30.0633 74.8327 30.518C74.6127 30.98 74.2717 31.3467 73.8097 31.618C73.3551 31.8893 72.7867 32.025 72.1047 32.025C71.1954 32.025 70.4584 31.8087 69.8937 31.376C69.3291 30.9507 69.0064 30.3713 68.9257 29.638H70.7847C70.8434 29.8727 70.9827 30.056 71.2027 30.188C71.4227 30.3273 71.6941 30.397 72.0167 30.397C72.4054 30.397 72.7134 30.2833 72.9407 30.056C73.1754 29.836 73.2927 29.4803 73.2927 28.989V28.12C73.1094 28.406 72.8564 28.6407 72.5337 28.824C72.2111 29 71.8334 29.088 71.4007 29.088C70.8947 29.088 70.4364 28.9597 70.0257 28.703C69.6151 28.439 69.2887 28.0687 69.0467 27.592C68.8121 27.108 68.6947 26.5507 68.6947 25.92C68.6947 25.2893 68.8121 24.7357 69.0467 24.259C69.2887 23.7823 69.6151 23.4157 70.0257 23.159C70.4364 22.9023 70.8947 22.774 71.4007 22.774ZM73.2927 25.931C73.2927 25.4617 73.1607 25.0913 72.8967 24.82C72.6401 24.5487 72.3247 24.413 71.9507 24.413C71.5767 24.413 71.2577 24.5487 70.9937 24.82C70.7371 25.084 70.6087 25.4507 70.6087 25.92C70.6087 26.3893 70.7371 26.7633 70.9937 27.042C71.2577 27.3133 71.5767 27.449 71.9507 27.449C72.3247 27.449 72.6401 27.3133 72.8967 27.042C73.1607 26.7707 73.2927 26.4003 73.2927 25.931ZM78.4155 20.86V29H76.5345V20.86H78.4155ZM85.5647 25.832C85.5647 26.008 85.5537 26.1913 85.5317 26.382H81.2747C81.304 26.7633 81.425 27.0567 81.6377 27.262C81.8577 27.46 82.1253 27.559 82.4407 27.559C82.91 27.559 83.2363 27.361 83.4197 26.965H85.4217C85.319 27.3683 85.132 27.7313 84.8607 28.054C84.5967 28.3767 84.263 28.6297 83.8597 28.813C83.4563 28.9963 83.0053 29.088 82.5067 29.088C81.9053 29.088 81.37 28.9597 80.9007 28.703C80.4313 28.4463 80.0647 28.0797 79.8007 27.603C79.5367 27.1263 79.4047 26.569 79.4047 25.931C79.4047 25.293 79.533 24.7357 79.7897 24.259C80.0537 23.7823 80.4203 23.4157 80.8897 23.159C81.359 22.9023 81.898 22.774 82.5067 22.774C83.1007 22.774 83.6287 22.8987 84.0907 23.148C84.5527 23.3973 84.912 23.753 85.1687 24.215C85.4327 24.677 85.5647 25.216 85.5647 25.832ZM83.6397 25.337C83.6397 25.0143 83.5297 24.7577 83.3097 24.567C83.0897 24.3763 82.8147 24.281 82.4847 24.281C82.1693 24.281 81.9017 24.3727 81.6817 24.556C81.469 24.7393 81.337 24.9997 81.2857 25.337H83.6397ZM94.7731 23.764C94.7731 24.2113 94.6704 24.622 94.4651 24.996C94.2597 25.3627 93.9444 25.6597 93.5191 25.887C93.0937 26.1143 92.5657 26.228 91.9351 26.228H90.7691V29H88.8881V21.278H91.9351C92.5511 21.278 93.0717 21.3843 93.4971 21.597C93.9224 21.8097 94.2414 22.103 94.4541 22.477C94.6667 22.851 94.7731 23.28 94.7731 23.764ZM91.7921 24.732C92.1514 24.732 92.4191 24.6477 92.5951 24.479C92.7711 24.3103 92.8591 24.072 92.8591 23.764C92.8591 23.456 92.7711 23.2177 92.5951 23.049C92.4191 22.8803 92.1514 22.796 91.7921 22.796H90.7691V24.732H91.7921ZM97.6333 20.86V29H95.7523V20.86H97.6333ZM98.6225 25.92C98.6225 25.2893 98.7398 24.7357 98.9745 24.259C99.2165 23.7823 99.5428 23.4157 99.9535 23.159C100.364 22.9023 100.822 22.774 101.328 22.774C101.761 22.774 102.139 22.862 102.461 23.038C102.791 23.214 103.044 23.445 103.22 23.731V22.862H105.101V29H103.22V28.131C103.037 28.417 102.78 28.648 102.45 28.824C102.128 29 101.75 29.088 101.317 29.088C100.819 29.088 100.364 28.9597 99.9535 28.703C99.5428 28.439 99.2165 28.0687 98.9745 27.592C98.7398 27.108 98.6225 26.5507 98.6225 25.92ZM103.22 25.931C103.22 25.4617 103.088 25.0913 102.824 24.82C102.568 24.5487 102.252 24.413 101.878 24.413C101.504 24.413 101.185 24.5487 100.921 24.82C100.665 25.084 100.536 25.4507 100.536 25.92C100.536 26.3893 100.665 26.7633 100.921 27.042C101.185 27.3133 101.504 27.449 101.878 27.449C102.252 27.449 102.568 27.3133 102.824 27.042C103.088 26.7707 103.22 26.4003 103.22 25.931ZM112.732 22.862L108.882 31.915H106.858L108.266 28.791L105.769 22.862H107.87L109.289 26.701L110.697 22.862H112.732Z" fill="white"/>
<path d="M6 6.84102V33.1576C6.00019 33.2147 6.01853 33.2705 6.05272 33.318C6.08691 33.3654 6.13543 33.4024 6.19219 33.4244C6.24895 33.4464 6.31143 33.4523 6.37179 33.4414C6.43215 33.4305 6.48771 33.4033 6.53149 33.3632L21.2886 20L6.53149 6.63545C6.48771 6.59536 6.43215 6.56817 6.37179 6.55728C6.31143 6.5464 6.24895 6.55231 6.19219 6.57426C6.13543 6.59622 6.08691 6.63324 6.05272 6.6807C6.01853 6.72815 6.00019 6.78393 6 6.84102V6.84102ZM27.4761 14.509L8.97261 5.04306L8.96108 5.03703C8.64232 4.87632 8.33944 5.27676 8.6005 5.50979L23.1052 18.3882L27.4761 14.509ZM8.60194 34.4902C8.33944 34.7232 8.64232 35.1237 8.96252 34.963L8.97406 34.9569L27.4761 25.491L23.1052 21.6105L8.60194 34.4902ZM34.9458 18.3259L29.7787 15.6835L24.9203 20L29.7787 24.3145L34.9458 21.6741C36.3514 20.9529 36.3514 19.0471 34.9458 18.3259Z" fill="white"/>
<rect x="1" y="1" width="121" height="38" stroke="white" stroke-width="2"/>
</svg>
